{
  "accessors": [
    {
      "bufferView": 2,
      "componentType": 5126,
      "count": 65533,
      "max": [
        96.83834838867188,
        106.12135314941406,
        -3.947905611312308e-07
      ],
      "min": [
        -96.83834838867188,
        -106.12135314941406,
        -400.6494445800781
      ],
      "type": "VEC3"
    },
    {
      "bufferView": 2,
      "byteOffset": 786396,
      "componentType": 5126,
      "count": 65533,
      "max": [
        1.0,
        1.0,
        1.0
      ],
      "min": [
        -1.0,
        -1.0,
        -1.0
      ],
      "type": "VEC3"
    },
    {
      "bufferView": 1,
      "componentType": 5126,
      "count": 65533,
      "max": [
        0.9994336366653442,
        1.0
      ],
      "min": [
        0.0,
        0.02822697162628174
      ],
      "type": "VEC2"
    },
    {
      "bufferView": 0,
      "componentType": 5125,
      "count": 148137,
      "type": "SCALAR"
    },
    {
      "bufferView": 2,
      "byteOffset": 1572792,
      "componentType": 5126,
      "count": 9867,
      "max": [
        24.63680648803711,
        22.065919876098633,
        -4.3774332425527973e-07
      ],
      "min": [
        -62.29094314575195,
        -39.545921325683594,
        -394.86956787109375
      ],
      "type": "VEC3"
    },
    {
      "bufferView": 2,
      "byteOffset": 1691196,
      "componentType": 5126,
      "count": 9867,
      "max": [
        0.9998281002044678,
        0.9999991059303284,
        0.9870290160179138
      ],
      "min": [
        -0.9990978837013245,
        -0.9999135136604309,
        -0.9994388818740845
      ],
      "type": "VEC3"
    },
    {
      "bufferView": 1,
      "byteOffset": 524264,
      "componentType": 5126,
      "count": 9867,
      "max": [
        0.9583923816680908,
        0.9544917345046997
      ],
      "min": [
        0.004365247208625078,
        0.07597076892852783
      ],
      "type": "VEC2"
    },
    {
      "bufferView": 0,
      "byteOffset": 592548,
      "componentType": 5125,
      "count": 17670,
      "type": "SCALAR"
    },
    {
      "bufferView": 2,
      "byteOffset": 1809600,
      "componentType": 5126,
      "count": 14739,
      "max": [
        18.895423889160156,
        22.794668197631836,
        -3.76016373593302e-07
      ],
      "min": [
        -56.549560546875,
        -35.657440185546875,
        -401.54608154296875
      ],
      "type": "VEC3"
    },
    {
      "bufferView": 2,
      "byteOffset": 1986468,
      "componentType": 5126,
      "count": 14739,
      "max": [
        1.0,
        0.9999991655349731,
        1.0
      ],
      "min": [
        -1.0,
        -0.9999986290931702,
        -1.0
      ],
      "type": "VEC3"
    },
    {
      "bufferView": 1,
      "byteOffset": 603200,
      "componentType": 5126,
      "count": 14739,
      "max": [
        1.0,
        1.0
      ],
      "min": [
        0.0,
        0.0
      ],
      "type": "VEC2"
    },
    {
      "bufferView": 0,
      "byteOffset": 663228,
      "componentType": 5125,
      "count": 38979,
      "type": "SCALAR"
    },
    {
      "bufferView": 2,
      "byteOffset": 2163336,
      "componentType": 5126,
      "count": 43701,
      "max": [
        19.138568878173828,
        23.207765579223633,
        -0.0
      ],
      "min": [
        -56.792724609375,
        -39.755767822265625,
        -404.4258728027344
      ],
      "type": "VEC3"
    },
    {
      "bufferView": 2,
      "byteOffset": 2687748,
      "componentType": 5126,
      "count": 43701,
      "max": [
        1.0,
        1.0,
        1.0
      ],
      "min": [
        -1.0,
        -1.0,
        -1.0
      ],
      "type": "VEC3"
    },
    {
      "bufferView": 1,
      "byteOffset": 721112,
      "componentType": 5126,
      "count": 43701,
      "max": [
        1.0,
        1.0
      ],
      "min": [
        0.0,
        0.0
      ],
      "type": "VEC2"
    },
    {
      "bufferView": 0,
      "byteOffset": 819144,
      "componentType": 5125,
      "count": 106998,
      "type": "SCALAR"
    },
    {
      "bufferView": 2,
      "byteOffset": 3212160,
      "componentType": 5126,
      "count": 22716,
      "max": [
        67.6795654296875,
        83.97325134277344,
        -6.30436773008114e-07
      ],
      "min": [
        -80.69921875,
        -83.71792602539063,
        -404.00732421875
      ],
      "type": "VEC3"
    },
    {
      "bufferView": 2,
      "byteOffset": 3484752,
      "componentType": 5126,
      "count": 22716,
      "max": [
        1.0,
        1.0,
        1.0
      ],
      "min": [
        -1.0,
        -1.0,
        -1.0
      ],
      "type": "VEC3"
    },
    {
      "bufferView": 1,
      "byteOffset": 1070720,
      "componentType": 5126,
      "count": 22716,
      "max": [
        0.9523340463638306,
        1.0
      ],
      "min": [
        0.0,
        0.00437772274017334
      ],
      "type": "VEC2"
    },
    {
      "bufferView": 0,
      "byteOffset": 1247136,
      "componentType": 5125,
      "count": 55344,
      "type": "SCALAR"
    },
    {
      "bufferView": 2,
      "byteOffset": 3757344,
      "componentType": 5126,
      "count": 51588,
      "max": [
        25.180191040039063,
        22.065919876098633,
        -3.76016373593302e-07
      ],
      "min": [
        -62.834327697753906,
        -39.273414611816406,
        -388.1264343261719
      ],
      "type": "VEC3"
    },
    {
      "bufferView": 2,
      "byteOffset": 4376400,
      "componentType": 5126,
      "count": 51588,
      "max": [
        0.9998724460601807,
        0.999874472618103,
        0.9997372627258301
      ],
      "min": [
        -0.9998725056648254,
        -0.9999611377716064,
        -0.9998546242713928
      ],
      "type": "VEC3"
    },
    {
      "bufferView": 1,
      "byteOffset": 1252448,
      "componentType": 5126,
      "count": 51588,
      "max": [
        0.9652091860771179,
        0.9930490255355835
      ],
      "min": [
        0.004365247208625078,
        0.028227031230926514
      ],
      "type": "VEC2"
    },
    {
      "bufferView": 0,
      "byteOffset": 1468512,
      "componentType": 5125,
      "count": 111270,
      "type": "SCALAR"
    }
  ],
  "asset": {
    "extras": {
      "author": "auts111 (https://sketchfab.com/auts111)",
      "license": "CC-BY-4.0 (http://creativecommons.org/licenses/by/4.0/)",
      "source": "https://sketchfab.com/3d-models/future-architectural-53dcd96bfb2d47be98582af1a491c02e",
      "title": "Future architectural"
    },
    "generator": "Sketchfab-15.44.0",
    "version": "2.0"
  },
  "bufferViews": [
    {
      "buffer": 0,
      "byteLength": 1913592,
      "name": "floatBufferViews",
      "target": 34963
    },
    {
      "buffer": 0,
      "byteLength": 1665152,
      "byteOffset": 1913592,
      "byteStride": 8,
      "name": "floatBufferViews",
      "target": 34962
    },
    {
      "buffer": 0,
      "byteLength": 4995456,
      "byteOffset": 3578744,
      "byteStride": 12,
      "name": "floatBufferViews",
      "target": 34962
    }
  ],
  "buffers": [
    {
      "byteLength": 8574200,
      "uri": "scene.bin"
    }
  ],
  "extensionsUsed": [
    "KHR_materials_specular",
    "KHR_materials_emissive_strength"
  ],
  "materials": [
    {
      "doubleSided": true,
      "extensions": {
        "KHR_materials_specular": {
          "specularColorFactor": [
            1.0,
            1.0,
            1.0
          ],
          "specularFactor": 1.0
        }
      },
      "name": "base",
      "pbrMetallicRoughness": {
        "baseColorFactor": [
          0.162925,
          0.154359,
          0.180955,
          1.0
        ],
        "roughnessFactor": 0.210968
      }
    },
    {
      "doubleSided": true,
      "name": "color2",
      "pbrMetallicRoughness": {
        "baseColorFactor": [
          0.025,
          0.025,
          0.025,
          1.0
        ],
        "metallicFactor": 0.0,
        "roughnessFactor": 0.552786
      }
    },
    {
      "doubleSided": true,
      "emissiveFactor": [
        1.0,
        0.813593,
        0.0170276
      ],
      "name": "matdefault_material",
      "pbrMetallicRoughness": {
        "baseColorFactor": [
          0.756863,
          0.756863,
          0.756863,
          1.0
        ],
        "metallicFactor": 0.0,
        "roughnessFactor": 0.552786
      }
    },
    {
      "doubleSided": true,
      "emissiveFactor": [
        0.077829,
        0.26076,
        1.0
      ],
      "extensions": {
        "KHR_materials_emissive_strength": {
          "emissiveStrength": 6.4
        },
        "KHR_materials_specular": {
          "specularColorFactor": [
            1.0,
            1.0,
            1.0
          ],
          "specularFactor": 1.0
        }
      },
      "name": "glass",
      "pbrMetallicRoughness": {
        "baseColorFactor": [
          0.0,
          0.95,
          1.0,
          1.0
        ],
        "metallicFactor": 0.272727,
        "roughnessFactor": 0.0
      }
    },
    {
      "doubleSided": true,
      "name": "panel",
      "pbrMetallicRoughness": {
        "baseColorFactor": [
          1.0,
          0.666667,
          0.0,
          1.0
        ],
        "metallicFactor": 0.0,
        "roughnessFactor": 0.552786
      }
    }
  ],
  "meshes": [
    {
      "name": "Object_0",
      "primitives": [
        {
          "attributes": {
            "NORMAL": 1,
            "POSITION": 0,
            "TEXCOORD_0": 2
          },
          "indices": 3,
          "material": 0,
          "mode": 4
        }
      ]
    },
    {
      "name": "Object_1",
      "primitives": [
        {
          "attributes": {
            "NORMAL": 5,
            "POSITION": 4,
            "TEXCOORD_0": 6
          },
          "indices": 7,
          "material": 0,
          "mode": 4
        }
      ]
    },
    {
      "name": "Object_2",
      "primitives": [
        {
          "attributes": {
            "NORMAL": 9,
            "POSITION": 8,
            "TEXCOORD_0": 10
          },
          "indices": 11,
          "material": 1,
          "mode": 4
        }
      ]
    },
    {
      "name": "Object_3",
      "primitives": [
        {
          "attributes": {
            "NORMAL": 13,
            "POSITION": 12,
            "TEXCOORD_0": 14
          },
          "indices": 15,
          "material": 2,
          "mode": 4
        }
      ]
    },
    {
      "name": "Object_4",
      "primitives": [
        {
          "attributes": {
            "NORMAL": 17,
            "POSITION": 16,
            "TEXCOORD_0": 18
          },
          "indices": 19,
          "material": 3,
          "mode": 4
        }
      ]
    },
    {
      "name": "Object_5",
      "primitives": [
        {
          "attributes": {
            "NORMAL": 21,
            "POSITION": 20,
            "TEXCOORD_0": 22
          },
          "indices": 23,
          "material": 4,
          "mode": 4
        }
      ]
    }
  ],
  "nodes": [
    {
      "children": [
        1
      ],
      "matrix": [
        1.0,
        0.0,
        0.0,
        0.0,
        0.0,
        2.220446049250313e-16,
        -1.0,
        0.0,
        0.0,
        1.0,
        2.220446049250313e-16,
        0.0,
        0.0,
        0.0,
        0.0,
        1.0
      ],
      "name": "Sketchfab_model"
    },
    {
      "children": [
        2
      ],
      "name": "root"
    },
    {
      "children": [
        3
      ],
      "matrix": [
        1.0,
        0.0,
        0.0,
        0.0,
        0.0,
        2.220446049250313e-16,
        1.0,
        0.0,
        0.0,
        -1.0,
        2.220446049250313e-16,
        0.0,
        0.0,
        0.0,
        0.0,
        1.0
      ],
      "name": "GLTF_SceneRootNode"
    },
    {
      "children": [
        4
      ],
      "matrix": [
        0.009999999776482582,
        0.0,
        0.0,
        0.0,
        0.0,
        -1.6858739316326353e-09,
        0.00999999977648244,
        0.0,
        0.0,
        -0.00999999977648244,
        -1.6858739316326353e-09,
        0.0,
        0.0,
        0.0,
        0.0,
        1.0
      ],
      "name": "path_7"
    },
    {
      "children": [
        5
      ],
      "name": "piece_7_6"
    },
    {
      "children": [
        6,
        9,
        11,
        13,
        15
      ],
      "name": "mat_5"
    },
    {
      "children": [
        7,
        8
      ],
      "name": "base_0"
    },
    {
      "mesh": 0,
      "name": "Object_7"
    },
    {
      "mesh": 1,
      "name": "Object_8"
    },
    {
      "children": [
        10
      ],
      "name": "color2_1"
    },
    {
      "mesh": 2,
      "name": "Object_10"
    },
    {
      "children": [
        12
      ],
      "name": "default_material_2"
    },
    {
      "mesh": 3,
      "name": "Object_12"
    },
    {
      "children": [
        14
      ],
      "name": "glass_3"
    },
    {
      "mesh": 4,
      "name": "Object_14"
    },
    {
      "children": [
        16
      ],
      "name": "panel_4"
    },
    {
      "mesh": 5,
      "name": "Object_16"
    }
  ],
  "scene": 0,
  "scenes": [
    {
      "name": "Sketchfab_Scene",
      "nodes": [
        0
      ]
    }
  ]
}
